PathFileType	4	(X/Y/Z)	Run_200 02
DataRate	CameraRate	NumFrames	NumMarkers	Units	OrigDataRate	OrigDataStartFrame	OrigNumFrames
120	120	4	42	mm	120	257	128
Frame#	Time	LASI			RASI			LPSI			RPSI			RTH1			RTH2			RTH3			LTH1			LTH2			LTH3			RTB1			RTB2			RTB3			LTB1			LTB2			LTB3			RCAL			RTOE			RMT5			LCAL			LTOE			LMT5			LACR			RACR			CLAV			C7			RUA1			RUA2			RUA3			RLEL			RMEL			LUA1			LUA2			LUA3			LLEL			LMEL			RFAsuperior			RFAradius			RFAulna			LFAsuperior			LFAradius			LFAulna		
		X1	Y1	Z1	X2	Y2	Z2	X3	Y3	Z3	X4	Y4	Z4	X5	Y5	Z5	X6	Y6	Z6	X7	Y7	Z7	X8	Y8	Z8	X9	Y9	Z9	X10	Y10	Z10	X11	Y11	Z11	X12	Y12	Z12	X13	Y13	Z13	X14	Y14	Z14	X15	Y15	Z15	X16	Y16	Z16	X17	Y17	Z17	X18	Y18	Z18	X19	Y19	Z19	X20	Y20	Z20	X21	Y21	Z21	X22	Y22	Z22	X23	Y23	Z23	X24	Y24	Z24	X25	Y25	Z25	X26	Y26	Z26	X27	Y27	Z27	X28	Y28	Z28	X29	Y29	Z29	X30	Y30	Z30	X31	Y31	Z31	X32	Y32	Z32	X33	Y33	Z33	X34	Y34	Z34	X35	Y35	Z35	X36	Y36	Z36	X37	Y37	Z37	X38	Y38	Z38	X39	Y39	Z39	X40	Y40	Z40	X41	Y41	Z41	X42	Y42	Z42	

257	  2.141667	907.870940	1120.105485	-455.988461	887.775427	1114.266812	-201.275844	723.851324	1158.138123	-384.003987	718.620778	1155.579267	-301.154746	793.249015	946.323647	-156.685269	818.684222	828.590607	-170.792223	721.562148	736.135155	-196.915624	890.833924	908.690936	-509.883377	985.457946	808.623319	-495.073771	949.453527	683.052114	-471.820738	669.493611	434.741389	-280.023747	606.777685	394.525141	-218.578022	563.059508	306.035087	-288.844982	1043.963342	462.967399	-404.253038	1024.143793	374.881598	-461.290279	1043.765828	262.777965	-393.754108	393.975689	259.669276	-312.168964	534.295078	 73.672853	-326.796074	462.746866	 98.490485	-241.124420	948.798216	106.242174	-390.712677	1176.585629	144.319963	-348.050359	1128.813166	 89.879532	-435.485958	902.491897	1588.688764	-513.323976	929.801942	1602.668614	-179.019841	959.957922	1537.644769	-316.055462	838.653263	1626.338458	-335.024334	909.612620	1507.142059	-95.186214	910.072117	1416.431223	-96.473557	842.831943	1414.558669	-53.139514	829.434142	1279.233308	 -5.778351	779.886620	1267.977579	-76.088664	844.000542	1529.006108	-587.865763	822.604446	1460.237770	-587.673714	731.490063	1491.402227	-561.929668	641.603250	1355.010277	-623.881512	609.626945	1361.178941	-544.112990	925.220147	1306.560681	-51.034987	1018.465266	1375.780838	-184.428592	1050.647354	1314.278055	-155.640167	727.090009	1310.546113	-609.430200	871.658487	1255.572380	-509.972350	843.966527	1195.532688	-538.831396	
258	  2.150000	907.954342	1118.568622	-456.377724	888.780797	1113.415561	-201.882131	724.056814	1156.395159	-384.121496	719.303173	1154.388071	-301.255140	795.706995	944.522315	-157.270594	822.247485	826.654273	-171.288682	726.327172	733.452825	-196.713387	889.372876	905.852617	-510.942753	982.934800	804.786266	-496.659197	946.900536	680.200856	-471.438895	671.629014	434.115035	-279.608849	607.579513	396.140150	-218.224294	560.206745	309.942603	-288.435986	1041.932324	460.546765	-403.883058	1022.080670	372.180919	-460.332801	1042.407681	260.414369	-392.553542	390.277582	269.980991	-311.448037	522.812062	 78.389187	-325.856554	452.360005	105.985842	-240.379676	947.850763	103.281322	-387.406412	1176.300691	142.629826	-349.695679	1126.909898	 87.865236	-435.940897	902.661890	1587.983546	-513.976729	929.313055	1602.069238	-180.121186	959.617872	1536.792335	-316.833011	838.384085	1625.068209	-336.291563	907.956798	1506.919255	-96.118580	907.539219	1416.093664	-97.349092	839.908630	1415.319091	-54.391667	824.474444	1280.171412	 -6.787061	774.633660	1269.712128	-77.065344	844.267438	1528.646661	-588.295914	823.346561	1459.778748	-588.794650	731.974907	1489.965826	-563.213488	643.573744	1352.369712	-625.294527	610.130116	1358.666296	-545.160096	920.504771	1306.228492	-52.177770	1014.140334	1374.727934	-185.675689	1045.779926	1312.914680	-156.986176	729.387641	1308.870539	-610.154701	874.222521	1255.455762	-510.163143	847.027352	1195.043532	-538.964132	
259	  2.158333	907.961794	1116.360335	-456.895492	889.591235	1111.869166	-202.581374	724.028919	1153.759435	-384.069630	719.799301	1152.221406	-301.271910	798.545762	941.854766	-157.780901	826.285196	824.034197	-171.947881	731.716620	729.869585	-196.650458	887.645978	902.531142	-511.974986	980.430927	800.630643	-497.976020	944.619417	676.991219	-470.972048	674.669395	433.020239	-279.289679	609.262993	397.482524	-217.842509	558.237213	313.703385	-288.265074	1039.339463	457.421382	-403.275346	1019.196924	368.910238	-459.312286	1039.273512	257.296161	-391.308543	387.001303	280.247114	-310.896263	512.299281	 83.820179	-324.549265	442.703561	114.028513	-239.426090	944.245228	100.324309	-383.961255	1173.641322	139.180468	-351.728440	1121.875830	 84.560672	-436.685990	902.929822	1586.602588	-514.632144	928.600412	1600.775094	-181.145311	959.207574	1535.148586	-317.570220	837.996517	1623.082021	-337.617920	905.937243	1505.994782	-96.955434	904.465838	1415.139197	-98.046499	836.414540	1415.491585	-55.621747	819.003288	1280.572453	 -7.721504	768.989364	1270.881041	-78.030028	844.760848	1527.218266	-588.750634	824.442362	1458.230414	-589.970051	732.667482	1487.446008	-564.928151	646.174951	1348.476713	-627.137230	611.701637	1354.819083	-546.952902	915.458316	1304.964750	-53.112964	1009.958634	1372.110480	-186.780680	1040.819094	1309.997697	-157.861576	732.365489	1306.067205	-611.146105	877.247407	1254.440162	-510.352089	850.758965	1193.589829	-539.155582	
260	  2.166667	908.006580	1113.543183	-457.540901	890.215512	1109.665178	-203.299678	723.946798	1150.210006	-383.884404	720.114126	1149.068316	-301.189653	801.679357	938.404333	-158.172301	830.680719	820.814572	-172.692813	737.610170	725.520967	-196.709780	885.845414	898.788477	-512.681788	978.242548	796.384121	-498.602265	942.550004	673.311528	-470.555470	678.529107	431.569601	-279.003978	611.732923	398.666211	-217.398770	557.551136	316.994305	-288.091129	1036.037517	453.394636	-402.587489	1015.371074	364.892858	-458.377936	1034.527320	253.280628	-390.296739	384.292224	290.511786	-310.551497	503.036413	 89.923866	-322.619575	433.939652	122.706883	-238.122341	938.286267	 97.713172	-380.592002	1168.664323	133.490235	-353.811163	1113.943443	 79.638240	-437.491887	903.289491	1584.457480	-515.313525	927.672850	1598.760349	-182.092083	958.725779	1532.702883	-318.243990	837.514481	1620.392527	-339.007672	903.548906	1504.379259	-97.703472	900.887946	1413.598210	-98.544431	832.392552	1415.073044	-56.826333	813.046661	1280.417051	 -8.598259	763.031410	1271.456507	-79.022332	845.533277	1524.674175	-589.357621	825.921085	1455.533817	-591.158523	733.618314	1483.846127	-567.060073	649.381179	1343.385897	-629.378550	614.323884	1349.668388	-549.492488	910.060622	1302.803726	-53.866632	1005.930539	1367.937817	-187.670057	1035.765128	1305.528770	-158.229149	735.993767	1302.223830	-612.540948	880.684493	1252.539594	-510.556604	855.099159	1191.173773	-539.378469	
